<svg xmlns="http://www.w3.org/2000/svg" xmlns:xlink="http://www.w3.org/1999/xlink" width="82.594" height="171.143" viewBox="0 0 82.594 171.143">
  <defs>
    <filter id="f3" x="0" y="0" width="200%" height="200%">
      <feOffset result="offOut" in="SourceAlpha" dx="20" dy="20" />
      <feGaussianBlur result="blurOut" in="offOut" stdDeviation="10" />
      <feBlend in="SourceGraphic" in2="blurOut" mode="normal" />
    </filter>
    <linearGradient id="linear-gradient" x1="1.42" x2="1.42" y2="1" gradientUnits="objectBoundingBox">
      <stop offset="0" stop-color="#9b9b9b"/>
      <stop offset="1" stop-color="#202020"/>
    </linearGradient>
    <linearGradient id="linear-gradient-2" x1="3.108" y1="0.292" x2="3.347" y2="0.292" gradientUnits="objectBoundingBox">
      <stop offset="0" stop-color="#5e5e5e"/>
      <stop offset="0.596" stop-color="#6b6b6b"/>
      <stop offset="1" stop-color="#909090"/>
    </linearGradient>
    <linearGradient id="linear-gradient-3" x1="1.924" y1="-0.646" x2="1.924" y2="-0.554" gradientUnits="objectBoundingBox">
      <stop offset="0" stop-color="#313131" stop-opacity="0.502"/>
      <stop offset="1" stop-color="#313131" stop-opacity="0"/>
    </linearGradient>
    <linearGradient id="linear-gradient-4" x1="1.924" y1="-7.256" x2="1.924" y2="-7.348" xlink:href="#linear-gradient-3"/>
    <linearGradient id="linear-gradient-5" x1="1.433" y1="-0.909" x2="1.672" y2="-0.909" xlink:href="#linear-gradient-2"/>
    <linearGradient id="linear-gradient-6" x1="0.249" y1="-2.688" x2="0.249" y2="-2.596" xlink:href="#linear-gradient-3"/>
    <linearGradient id="linear-gradient-7" x1="0.249" y1="-10.223" x2="0.249" y2="-10.315" xlink:href="#linear-gradient-3"/>
    <linearGradient id="linear-gradient-8" x1="0.842" y1="0.322" x2="0.842" y2="1.322" xlink:href="#linear-gradient"/>
    <clipPath id="clip-path">
      <rect id="Rectangle_28" data-name="Rectangle 28" width="81.872" height="171.143" rx="7.847" fill="url(#linear-gradient)"/>
    </clipPath>
    <linearGradient id="linear-gradient-9" x1="-0.745" y1="24.82" x2="0.267" y2="24.82" gradientUnits="objectBoundingBox">
      <stop offset="0" stop-color="#7e7e7e"/>
      <stop offset="1" stop-color="#909090"/>
    </linearGradient>
    <linearGradient id="linear-gradient-10" x1="-6.471" y1="24.96" x2="-5.471" y2="24.96" gradientUnits="objectBoundingBox">
      <stop offset="0" stop-color="#1d1d1d"/>
      <stop offset="1" stop-color="#242424"/>
    </linearGradient>
    <clipPath id="clip-path-2">
      <circle id="Ellipse_10" data-name="Ellipse 10" cx="1.051" cy="1.051" r="1.051" transform="translate(20.139 10.994) rotate(150)" stroke-width="0.167" stroke="#1d1d1d" stroke-linecap="square" stroke-linejoin="bevel" fill="none"/>
    </clipPath>
  </defs>
  <g id="Pixel_2" transform="translate(-94 -35.756)">
    <g id="Group_29" data-name="Group 29" transform="translate(46.673 90.946)">
      <g id="Group_20" data-name="Group 20" transform="translate(46.505 -57.519)">
        <rect id="Rectangle_18" data-name="Rectangle 18" width="6.04" height="11.898" rx="0.694" transform="translate(77.377 47.007)" fill="url(#linear-gradient-2)"/>
        <rect id="Rectangle_19" data-name="Rectangle 19" width="6.04" height="11.898" rx="0.694" transform="translate(77.377 47.007)" fill="url(#linear-gradient-3)"/>
        <rect id="Rectangle_20" data-name="Rectangle 20" width="6.04" height="11.898" rx="0.694" transform="translate(77.377 47.007)" fill="url(#linear-gradient-4)"/>
      </g>
      <g id="Group_21" data-name="Group 21" transform="translate(36.388 -55.623)">
        <rect id="Rectangle_21" data-name="Rectangle 21" width="6.04" height="22.908" rx="0.694" transform="translate(87.493 71.3)" fill="url(#linear-gradient-5)"/>
        <rect id="Rectangle_22" data-name="Rectangle 22" width="6.04" height="11.898" rx="0.694" transform="translate(87.493 71.3)" fill="url(#linear-gradient-6)"/>
        <rect id="Rectangle_23" data-name="Rectangle 23" width="6.04" height="11.898" rx="0.694" transform="translate(87.493 82.311)" fill="url(#linear-gradient-7)"/>
      </g>
      <g id="Group_22" data-name="Group 22">
        <rect id="Rectangle_24" data-name="Rectangle 24" width="81.872" height="171.143" rx="7.847" transform="translate(47.327 -55.19)" fill="url(#linear-gradient-8)"/>
        <rect id="Rectangle_25" data-name="Rectangle 25" width="14.161" height="1.778" transform="translate(47.327 -8.467)" fill="#595959"/>
        <rect id="Rectangle_26" data-name="Rectangle 26" width="81.872" height="1.778" transform="translate(47.327 -42.033)" fill="#595959"/>
      </g>
      <g id="Group_23" data-name="Group 23" transform="translate(47.327 -55.19)" clip-path="url(#clip-path)">
        <rect id="Rectangle_27" data-name="Rectangle 27" width="81.872" height="171.143" rx="7.847" fill="none" stroke="rgba(0,0,0,0.6)" stroke-linecap="square" stroke-linejoin="bevel" stroke-width="0.26"/>
      </g>
      <rect id="Rectangle_29" data-name="Rectangle 29" width="79.242" height="168.282" rx="7.109" transform="translate(48.642 -53.759)" stroke-width="0.26" stroke="rgba(0,0,0,0.6)" stroke-linecap="square" stroke-linejoin="bevel" fill="none"/>
      <g id="Group_24" data-name="Group 24">
        <rect id="Rectangle_30" data-name="Rectangle 30" width="79.242" height="168.282" rx="7.109" transform="translate(48.642 -53.759)"/>
        <path id="Path_109" data-name="Path 109" d="M61.112-52.748h58.521c4.162,0,5.505,1.864,5.505,1.864a5.7,5.7,0,0,0-4.552-2.254H71.039a84.042,84.042,0,0,0-9.927.39Z" fill-rule="evenodd" fill="url(#linear-gradient-9)"/>
        <circle id="Ellipse_6" data-name="Ellipse 6" cx="1.636" cy="1.636" r="1.636" transform="matrix(0.866, 0.5, -0.5, 0.866, 61.14, -47.154)" fill="url(#linear-gradient-10)"/>
      </g>
      <g id="Group_26" data-name="Group 26" transform="translate(43.036 -55.527)">
        <circle id="Ellipse_7" data-name="Ellipse 7" cx="1.051" cy="1.051" r="1.051" transform="translate(20.139 10.994) rotate(150)" fill="#1a162d"/>
        <g id="Group_25" data-name="Group 25" clip-path="url(#clip-path-2)">
          <circle id="Ellipse_8" data-name="Ellipse 8" cx="0.492" cy="0.492" r="0.492" transform="matrix(0.866, 0.5, -0.5, 0.866, 18.838, 10.251)" fill="#7d77a1"/>
          <circle id="Ellipse_9" data-name="Ellipse 9" cx="0.147" cy="0.147" r="0.147" transform="matrix(0.866, 0.5, -0.5, 0.866, 18.266, 10.025)" fill="#7d77a1"/>
        </g>
      </g>
      <g id="Group_27" data-name="Group 27" transform="translate(46.944 -55.19)">
        <rect id="Rectangle_31" data-name="Rectangle 31" width="31.02" height="2.023" rx="1.012" transform="translate(25.809 9.145)" fill="#222"/>
        <path id="Path_110" data-name="Path 110" d="M26.016,10.039a.84.84,0,0,0-.011.119.809.809,0,0,0,.816.816h29a.812.812,0,0,0,.819-.816.839.839,0,0,0-.012-.119.809.809,0,0,1-.807.7h-29a.806.806,0,0,1-.8-.7Z" fill="#191919"/>
      </g>
      <g id="Group_28" data-name="Group 28" transform="translate(46.944 96.853)">
        <rect id="Rectangle_32" data-name="Rectangle 32" width="31.02" height="2.023" rx="1.012" transform="translate(25.809 9.145)" fill="#222"/>
        <path id="Path_111" data-name="Path 111" d="M26.016,10.039a.84.84,0,0,0-.011.119.809.809,0,0,0,.816.816h29a.812.812,0,0,0,.819-.816.839.839,0,0,0-.012-.119.809.809,0,0,1-.807.7h-29a.806.806,0,0,1-.8-.7Z" fill="#191919"/>
      </g>
      <rect id="Rectangle_33" data-name="Rectangle 33" width="73.286" height="129.687" transform="translate(51.62 -34.462)" stroke-width="0.649" stroke="#1c1c1c" stroke-linecap="square" stroke-linejoin="round"/>
    </g>
  </g>
</svg>
